# xmcd
#
# Track frame offsets:
#	150
#	18293
#	38859
#	61476
#	84105
#	103676
#	125094
#	144894
#	160010
#	178443
#	197836
#	231146
#	250846
#	267261
#	285860
#	304210
#	332004
#
# Disc length: 4667 seconds
#
# Revision: 1
# Processed by: cddbd v1.4PL0 Copyright (c) Steve Scherf et al.
# Submitted via: MusicWizard 6.0.2
#
DISCID=e7123911
DTITLE=Kenny G - Greatest Hits
DYEAR=1993
DGENRE=Instrumental
TTITLE0=Songbird
TTITLE1=Silhouette
TTITLE2=Forever In Love
TTITLE3=Everytime I Close My Eyes (With Babyface)
TTITLE4=Sentimental
TTITLE5=The Moment
TTITLE6=How Could An Angel Break My Heart (With Toni Braxton)
TTITLE7=Loving You
TTITLE8=You Send Me (With Michael Bolton)
TTITLE9=Going Home
TTITLE10=Havana
TTITLE11=By The Time This Night Is Over (With Peabo Bryson)
TTITLE12=Baby G
TTITLE13=Don't Make Me Wait For Love
TTITLE14=Theme From Dying Young
TTITLE15=All The Way/One For My Baby (And One More For The Road) (With Frank Sinatra)
TTITLE16=Innocence
EXTD=
EXTT0=
EXTT1=
EXTT2=
EXTT3=
EXTT4=
EXTT5=
EXTT6=
EXTT7=
EXTT8=
EXTT9=
EXTT10=
EXTT11=
EXTT12=
EXTT13=
EXTT14=
EXTT15=
EXTT16=
PLAYORDER=
